<?xml version="1.0" standalone="no"?>
<!DOCTYPE svg PUBLIC "-//W3C//DTD SVG 20010904//EN"
 "http://www.w3.org/TR/2001/REC-SVG-20010904/DTD/svg10.dtd">
<svg version="1.0" xmlns="http://www.w3.org/2000/svg"
 width="672.000000pt" height="1280.000000pt" viewBox="0 0 672.000000 1280.000000"
 preserveAspectRatio="xMidYMid meet">
<g transform="translate(0.000000,1280.000000) scale(0.100000,-0.100000)"
fill="#000000" stroke="none">
<path d="M4754 12776 c-83 -31 -125 -58 -178 -117 -150 -167 -214 -447 -146
-643 58 -168 154 -247 288 -233 207 22 382 263 407 563 17 198 -81 390 -222
438 -60 21 -75 20 -149 -8z"/>
<path d="M5589 12302 c-245 -81 -448 -349 -449 -593 0 -111 48 -213 127 -268
35 -24 45 -26 149 -26 110 0 111 0 195 42 152 75 270 207 340 378 27 68 32 93
33 170 2 143 -44 239 -137 287 -59 30 -182 35 -258 10z"/>
<path d="M3785 12290 c-216 -103 -310 -498 -177 -744 41 -75 116 -152 167
-172 90 -34 218 5 290 89 48 56 102 164 120 238 19 82 19 239 0 312 -19 73
-66 166 -107 213 -69 78 -203 108 -293 64z"/>
<path d="M4325 11329 c-145 -20 -339 -109 -520 -237 -101 -73 -277 -250 -306
-309 -29 -61 -36 -157 -15 -219 46 -141 139 -185 506 -243 263 -41 366 -100
536 -304 125 -150 174 -198 239 -228 74 -36 166 -39 232 -10 127 58 188 280
163 599 -48 621 -232 898 -633 952 -88 11 -116 11 -202 -1z"/>
<path d="M5746 11285 c-157 -40 -327 -179 -401 -328 -65 -132 -61 -281 11
-365 73 -86 233 -112 376 -64 149 51 289 175 360 320 42 83 43 89 43 181 0 79
-4 103 -22 136 -28 52 -68 90 -118 111 -55 23 -176 27 -249 9z"/>
<path d="M5359 8490 c-177 -30 -324 -210 -375 -460 -41 -204 23 -425 148 -507
33 -23 55 -28 114 -31 65 -4 81 -1 140 27 247 115 384 530 262 793 -39 85
-119 164 -176 173 -20 4 -44 8 -52 10 -8 1 -36 -1 -61 -5z"/>
<path d="M6220 8024 c-135 -25 -275 -117 -374 -247 -103 -137 -141 -246 -134
-387 10 -200 132 -301 328 -271 233 35 456 265 510 527 31 149 -38 311 -153
359 -39 16 -135 27 -177 19z"/>
<path d="M4390 8011 c-122 -37 -229 -187 -266 -370 -30 -152 -1 -313 77 -430
70 -105 128 -141 227 -141 146 0 280 142 328 348 22 92 15 254 -15 342 -27 79
-91 178 -137 209 -66 45 -149 61 -214 42z"/>
<path d="M1289 7502 c-116 -39 -201 -122 -270 -267 -114 -238 -98 -498 41
-649 55 -59 110 -80 193 -74 149 12 281 132 358 325 90 225 73 442 -48 591
-66 81 -168 109 -274 74z"/>
<path d="M2163 7040 c-182 -37 -388 -238 -459 -450 -24 -72 -25 -239 -2 -290
30 -66 75 -117 124 -140 96 -47 268 -21 390 58 90 58 194 176 242 274 74 150
88 253 51 373 -45 145 -171 209 -346 175z"/>
<path d="M340 7028 c-53 -18 -151 -122 -188 -199 -85 -178 -87 -391 -6 -551
36 -71 116 -153 170 -174 97 -37 211 -1 293 92 86 98 131 230 131 387 0 194
-71 356 -187 424 -51 30 -154 40 -213 21z"/>
<path d="M4840 7025 c-36 -7 -85 -21 -109 -29 -67 -24 -222 -108 -320 -173
-102 -67 -319 -279 -346 -338 -24 -50 -31 -161 -15 -212 47 -144 144 -190 519
-248 170 -26 289 -73 383 -152 31 -26 107 -108 168 -180 61 -73 125 -144 143
-157 79 -60 181 -86 257 -66 192 52 253 310 189 800 -46 356 -170 585 -376
693 -135 71 -329 95 -493 62z"/>
<path d="M6268 6976 c-130 -46 -246 -140 -328 -267 -53 -82 -73 -149 -74 -239
0 -129 58 -210 173 -244 256 -75 580 137 665 436 21 72 20 86 -5 163 -25 79
-77 135 -144 159 -74 25 -204 21 -287 -8z"/>
<path d="M780 6039 c-98 -25 -260 -104 -384 -186 -103 -69 -300 -250 -337
-309 -27 -45 -59 -132 -59 -164 0 -32 36 -126 62 -163 54 -76 175 -125 374
-152 248 -34 396 -87 501 -180 29 -25 102 -105 162 -178 120 -144 175 -188
262 -211 251 -64 377 167 339 619 -48 572 -203 838 -540 925 -102 27 -276 26
-380 -1z"/>
<path d="M2300 6015 c-143 -32 -286 -133 -377 -267 -61 -90 -83 -156 -83 -246
0 -87 16 -135 62 -187 32 -36 53 -49 105 -65 112 -35 211 -23 338 39 143 71
273 216 317 354 38 119 14 251 -59 319 -58 56 -189 79 -303 53z"/>
<path d="M2299 3021 c-176 -69 -308 -286 -326 -536 -13 -185 65 -367 181 -424
194 -96 437 90 517 397 29 112 29 266 0 352 -34 97 -94 175 -163 211 -48 25
-146 25 -209 0z"/>
<path d="M3210 2569 c-133 -21 -297 -142 -399 -295 -64 -95 -92 -177 -98 -289
-7 -116 17 -187 86 -256 56 -57 107 -73 206 -66 217 16 421 186 514 426 66
172 45 331 -57 423 -60 54 -146 73 -252 57z"/>
<path d="M1389 2557 c-104 -29 -191 -132 -242 -287 -66 -199 -29 -421 94 -563
56 -65 108 -90 184 -90 79 1 142 31 203 97 95 105 142 235 142 394 0 153 -42
278 -125 370 -67 75 -164 104 -256 79z"/>
<path d="M1855 1576 c-127 -24 -292 -102 -465 -220 -93 -63 -290 -257 -321
-317 -32 -60 -34 -194 -4 -254 49 -100 150 -153 349 -185 66 -11 153 -25 191
-31 217 -35 335 -110 520 -334 106 -127 138 -158 200 -188 99 -47 129 -52 191
-33 104 33 171 119 201 260 20 95 20 335 -1 501 -59 470 -218 710 -521 791
-82 21 -253 27 -340 10z"/>
<path d="M3303 1535 c-97 -26 -176 -74 -264 -160 -118 -115 -172 -227 -172
-356 0 -123 62 -213 169 -245 62 -19 177 -18 245 2 176 51 357 225 409 393 53
170 -7 326 -141 365 -64 19 -176 20 -246 1z"/>
</g>
</svg>
